<svg width="240" height="340" viewBox="0 0 240 340" fill="none" xmlns="http://www.w3.org/2000/svg">
<path fill-rule="evenodd" clip-rule="evenodd" d="M100 5C100 2.23858 102.239 0 105 0H135C137.761 0 140 2.23858 140 5V100H205H235C237.761 100 240 102.239 240 105V135V235C240 237.761 237.761 240 235 240H205C202.239 240 200 237.761 200 235V140H140V300H235C237.761 300 240 302.239 240 305V335C240 337.761 237.761 340 235 340H135H105C102.239 340 100 337.761 100 335V305V140H40V335C40 337.761 37.7614 340 35 340H5C2.23858 340 0 337.761 0 335V135V105C0 104.655 0.0349778 104.318 0.101582 103.992C0.567814 101.714 2.58375 100 5 100H35H100V5Z" fill="#DFAB00"/>
</svg>
